<?xml version="1.0" standalone="no"?>
<!DOCTYPE svg PUBLIC "-//W3C//DTD SVG 20010904//EN"
 "http://www.w3.org/TR/2001/REC-SVG-20010904/DTD/svg10.dtd">
<svg version="1.0" xmlns="http://www.w3.org/2000/svg"
 width="367.000000pt" height="384.000000pt" viewBox="0 0 367.000000 384.000000"
 preserveAspectRatio="xMidYMid meet">
<metadata>
Created by potrace 1.16, written by Peter Selinger 2001-2019
</metadata>
<g transform="translate(0.000000,384.000000) scale(0.100000,-0.100000)"
fill="#000000" stroke="none">
<path d="M1572 3793 l3 -48 115 -6 c250 -14 466 -72 695 -185 287 -143 521
-349 700 -619 415 -621 414 -1422 0 -2040 -96 -143 -193 -255 -308 -355 -310
-272 -684 -426 -1087 -448 l-115 -7 -3 -44 -3 -43 163 5 c96 3 193 12 237 22
366 82 673 244 931 492 175 167 289 323 395 538 225 454 263 986 104 1469
-182 554 -606 996 -1151 1200 -186 69 -425 116 -592 116 l-87 0 3 -47z"/>
<path d="M2420 3378 c-11 -18 -20 -36 -20 -40 0 -3 33 -28 73 -55 234 -155
428 -375 555 -628 449 -893 4 -1981 -938 -2293 -200 -66 -273 -77 -515 -76
-179 0 -225 3 -312 22 -141 31 -269 74 -389 132 -57 28 -106 50 -109 50 -2 0
-14 -18 -25 -39 l-20 -40 103 -49 c999 -487 2189 86 2431 1170 120 535 -13
1080 -366 1504 -110 132 -309 302 -420 360 -27 14 -29 13 -48 -18z"/>
<path d="M1024 2691 c-74 -51 -182 -160 -231 -232 -179 -261 -217 -608 -99
-901 99 -243 309 -449 548 -537 129 -48 177 -55 343 -55 143 0 169 3 245 27
79 24 178 64 208 85 11 7 9 16 -8 45 l-21 35 -74 -34 c-217 -100 -493 -100
-709 0 -245 113 -424 330 -486 588 -27 114 -27 292 0 406 48 201 185 402 348
510 28 19 52 38 52 41 0 8 -39 71 -43 71 -2 0 -35 -22 -73 -49z"/>
<path d="M1462 2669 c-81 -12 -206 -58 -282 -104 -223 -135 -360 -383 -360
-650 0 -383 277 -702 654 -754 43 -6 82 -11 87 -11 5 0 9 20 9 45 l0 45 -42 0
c-106 1 -249 55 -357 136 -111 83 -208 233 -246 379 -20 77 -20 243 0 320 38
146 135 296 246 379 108 81 251 135 357 136 l42 0 0 45 c0 51 4 50 -108 34z"/>
<path d="M2868 2659 c-21 -11 -38 -22 -38 -25 0 -3 18 -43 40 -89 49 -102 93
-232 117 -345 14 -66 18 -130 18 -285 0 -155 -4 -219 -18 -285 -151 -705 -770
-1191 -1472 -1157 -339 17 -633 137 -894 366 -76 66 -193 204 -246 290 -21 33
-39 61 -41 61 -9 0 -74 -43 -74 -49 0 -4 21 -38 46 -77 198 -297 474 -507 804
-612 182 -58 246 -67 470 -67 178 0 219 3 309 23 457 103 830 387 1040 793
230 443 236 967 15 1401 l-39 76 -37 -19z"/>
<path d="M1510 2480 c-286 -36 -500 -280 -500 -567 0 -125 43 -246 123 -352
39 -51 133 -131 153 -131 5 0 17 15 27 32 l18 32 -28 20 c-81 57 -158 166
-187 265 -21 70 -21 202 0 272 39 132 134 244 261 306 77 38 79 38 198 38 107
0 127 -3 181 -26 l62 -26 16 28 c23 39 21 44 -31 67 -94 40 -196 54 -293 42z"/>
<path d="M551 2423 c-123 -245 -150 -536 -75 -813 111 -418 465 -743 896 -825
104 -19 312 -19 415 0 226 43 433 152 594 314 96 97 184 214 176 236 -4 8 -19
21 -36 29 l-30 16 -54 -78 c-126 -178 -317 -323 -516 -391 -270 -93 -545 -74
-806 54 -177 86 -311 206 -423 378 -195 301 -220 692 -67 1025 20 41 34 76 33
77 -2 0 -15 9 -30 18 -15 9 -32 17 -38 17 -5 0 -23 -26 -39 -57z"/>
<path d="M245 1823 c48 -619 491 -1115 1100 -1234 105 -21 388 -18 495 5 251
54 472 172 660 352 237 228 386 541 408 856 l7 108 -47 0 -48 0 0 -59 c0 -79
-25 -219 -56 -316 -144 -446 -518 -774 -974 -856 -109 -20 -345 -17 -450 5
-247 53 -459 166 -635 341 -219 218 -340 485 -370 818 l-7 67 -45 0 -45 0 7
-87z"/>
</g>
</svg>
